<svg xmlns="http://www.w3.org/2000/svg" width="760" height="560" viewBox="0 0 760 560">
<rect width="100%" height="100%" fill="#ffffff"/>
<text x="42" y="42" font-family="Arial" font-size="24" font-weight="700" fill="#111827">DBSCAN clustering (eps=0.4, min_samples=5)</text>
<rect x="72" y="72" width="538" height="416" fill="#f8fafc" stroke="#cbd5e1"/>
<line x1="72" y1="155.2" x2="610" y2="155.2" stroke="#e2e8f0"/>
<line x1="179.6" y1="72" x2="179.6" y2="488" stroke="#e2e8f0"/>
<line x1="72" y1="238.4" x2="610" y2="238.4" stroke="#e2e8f0"/>
<line x1="287.2" y1="72" x2="287.2" y2="488" stroke="#e2e8f0"/>
<line x1="72" y1="321.6" x2="610" y2="321.6" stroke="#e2e8f0"/>
<line x1="394.8" y1="72" x2="394.8" y2="488" stroke="#e2e8f0"/>
<line x1="72" y1="404.8" x2="610" y2="404.8" stroke="#e2e8f0"/>
<line x1="502.4" y1="72" x2="502.4" y2="488" stroke="#e2e8f0"/>
<text x="341.0" y="532" text-anchor="middle" font-family="Arial" font-size="15" fill="#334155">PCA 1</text>
<text x="26" y="280.0" text-anchor="middle" transform="rotate(-90 26 280.0)" font-family="Arial" font-size="15" fill="#334155">PCA 2</text>
<path d="M157.4,176.1 L167.4,186.1 M167.4,176.1 L157.4,186.1" stroke="#8a8f98" stroke-width="2"/>
<path d="M137.6,351.0 L147.6,361.0 M147.6,351.0 L137.6,361.0" stroke="#8a8f98" stroke-width="2"/>
<path d="M114.9,340.6 L124.9,350.6 M124.9,340.6 L114.9,350.6" stroke="#8a8f98" stroke-width="2"/>
<path d="M148.0,151.2 L158.0,161.2 M158.0,151.2 L148.0,161.2" stroke="#8a8f98" stroke-width="2"/>
<path d="M143.1,95.7 L153.1,105.7 M153.1,95.7 L143.1,105.7" stroke="#8a8f98" stroke-width="2"/>
<path d="M147.3,176.5 L157.3,186.5 M157.3,176.5 L147.3,186.5" stroke="#8a8f98" stroke-width="2"/>
<path d="M170.9,181.7 L180.9,191.7 M180.9,181.7 L170.9,191.7" stroke="#8a8f98" stroke-width="2"/>
<path d="M104.1,245.3 L114.1,255.3 M114.1,245.3 L104.1,255.3" stroke="#8a8f98" stroke-width="2"/>
<path d="M116.3,155.6 L126.3,165.6 M126.3,155.6 L116.3,165.6" stroke="#8a8f98" stroke-width="2"/>
<path d="M129.1,131.7 L139.1,141.7 M139.1,131.7 L129.1,141.7" stroke="#8a8f98" stroke-width="2"/>
<path d="M173.9,433.0 L183.9,443.0 M183.9,433.0 L173.9,443.0" stroke="#8a8f98" stroke-width="2"/>
<path d="M399.5,218.1 L409.5,228.1 M409.5,218.1 L399.5,228.1" stroke="#8a8f98" stroke-width="2"/>
<path d="M371.3,236.2 L381.3,246.2 M381.3,236.2 L371.3,246.2" stroke="#8a8f98" stroke-width="2"/>
<path d="M372.5,224.2 L382.5,234.2 M382.5,224.2 L372.5,234.2" stroke="#8a8f98" stroke-width="2"/>
<path d="M278.4,400.5 L288.4,410.5 M288.4,400.5 L278.4,410.5" stroke="#8a8f98" stroke-width="2"/>
<path d="M316.4,345.5 L326.4,355.5 M326.4,345.5 L316.4,355.5" stroke="#8a8f98" stroke-width="2"/>
<path d="M307.2,454.3 L317.2,464.3 M317.2,454.3 L307.2,464.3" stroke="#8a8f98" stroke-width="2"/>
<path d="M358.4,394.6 L368.4,404.6 M368.4,394.6 L358.4,404.6" stroke="#8a8f98" stroke-width="2"/>
<path d="M408.9,385.0 L418.9,395.0 M418.9,385.0 L408.9,395.0" stroke="#8a8f98" stroke-width="2"/>
<path d="M371.8,249.5 L381.8,259.5 M381.8,249.5 L371.8,259.5" stroke="#8a8f98" stroke-width="2"/>
<path d="M409.6,338.8 L419.6,348.8 M419.6,338.8 L409.6,348.8" stroke="#8a8f98" stroke-width="2"/>
<path d="M396.4,318.6 L406.4,328.6 M406.4,318.6 L396.4,328.6" stroke="#8a8f98" stroke-width="2"/>
<path d="M332.6,295.4 L342.6,305.4 M342.6,295.4 L332.6,305.4" stroke="#8a8f98" stroke-width="2"/>
<path d="M348.3,219.3 L358.3,229.3 M358.3,219.3 L348.3,229.3" stroke="#8a8f98" stroke-width="2"/>
<path d="M395.2,369.0 L405.2,379.0 M405.2,369.0 L395.2,379.0" stroke="#8a8f98" stroke-width="2"/>
<path d="M288.0,411.7 L298.0,421.7 M298.0,411.7 L288.0,421.7" stroke="#8a8f98" stroke-width="2"/>
<path d="M281.4,379.8 L291.4,389.8 M291.4,379.8 L281.4,389.8" stroke="#8a8f98" stroke-width="2"/>
<path d="M456.2,217.6 L466.2,227.6 M466.2,217.6 L456.2,227.6" stroke="#8a8f98" stroke-width="2"/>
<path d="M403.8,323.0 L413.8,333.0 M413.8,323.0 L403.8,333.0" stroke="#8a8f98" stroke-width="2"/>
<path d="M483.6,238.3 L493.6,248.3 M493.6,238.3 L483.6,248.3" stroke="#8a8f98" stroke-width="2"/>
<path d="M457.9,256.3 L467.9,266.3 M467.9,256.3 L457.9,266.3" stroke="#8a8f98" stroke-width="2"/>
<path d="M525.3,222.3 L535.3,232.3 M535.3,222.3 L525.3,232.3" stroke="#8a8f98" stroke-width="2"/>
<path d="M343.5,380.9 L353.5,390.9 M353.5,380.9 L343.5,390.9" stroke="#8a8f98" stroke-width="2"/>
<path d="M491.0,247.9 L501.0,257.9 M501.0,247.9 L491.0,257.9" stroke="#8a8f98" stroke-width="2"/>
<path d="M468.5,323.9 L478.5,333.9 M478.5,323.9 L468.5,333.9" stroke="#8a8f98" stroke-width="2"/>
<path d="M487.8,147.1 L497.8,157.1 M497.8,147.1 L487.8,157.1" stroke="#8a8f98" stroke-width="2"/>
<path d="M419.5,229.6 L429.5,239.6 M429.5,229.6 L419.5,239.6" stroke="#8a8f98" stroke-width="2"/>
<path d="M437.7,304.4 L447.7,314.4 M447.7,304.4 L437.7,314.4" stroke="#8a8f98" stroke-width="2"/>
<path d="M459.1,247.9 L469.1,257.9 M469.1,247.9 L459.1,257.9" stroke="#8a8f98" stroke-width="2"/>
<path d="M411.6,354.1 L421.6,364.1 M421.6,354.1 L411.6,364.1" stroke="#8a8f98" stroke-width="2"/>
<path d="M427.4,305.8 L437.4,315.8 M437.4,305.8 L427.4,315.8" stroke="#8a8f98" stroke-width="2"/>
<path d="M436.8,230.7 L446.8,240.7 M446.8,230.7 L436.8,240.7" stroke="#8a8f98" stroke-width="2"/>
<path d="M500.5,104.4 L510.5,114.4 M510.5,104.4 L500.5,114.4" stroke="#8a8f98" stroke-width="2"/>
<path d="M567.9,274.9 L577.9,284.9 M577.9,274.9 L567.9,284.9" stroke="#8a8f98" stroke-width="2"/>
<path d="M411.9,390.7 L421.9,400.7 M421.9,390.7 L411.9,400.7" stroke="#8a8f98" stroke-width="2"/>
<path d="M390.1,314.5 L400.1,324.5 M400.1,314.5 L390.1,324.5" stroke="#8a8f98" stroke-width="2"/>
<path d="M536.4,248.3 L546.4,258.3 M546.4,248.3 L536.4,258.3" stroke="#8a8f98" stroke-width="2"/>
<path d="M417.2,308.4 L427.2,318.4 M427.2,308.4 L417.2,318.4" stroke="#8a8f98" stroke-width="2"/>
<path d="M464.5,208.4 L474.5,218.4 M474.5,208.4 L464.5,218.4" stroke="#8a8f98" stroke-width="2"/>
<path d="M405.1,297.3 L415.1,307.3 M415.1,297.3 L405.1,307.3" stroke="#8a8f98" stroke-width="2"/>
<path d="M393.4,271.8 L403.4,281.8 M403.4,271.8 L393.4,281.8" stroke="#8a8f98" stroke-width="2"/>
<path d="M451.9,288.7 L461.9,298.7 M461.9,288.7 L451.9,298.7" stroke="#8a8f98" stroke-width="2"/>
<path d="M457.6,238.3 L467.6,248.3 M467.6,238.3 L457.6,248.3" stroke="#8a8f98" stroke-width="2"/>
<path d="M501.2,258.7 L511.2,268.7 M511.2,258.7 L501.2,268.7" stroke="#8a8f98" stroke-width="2"/>
<path d="M491.2,99.7 L501.2,109.7 M501.2,99.7 L491.2,109.7" stroke="#8a8f98" stroke-width="2"/>
<path d="M457.5,288.1 L467.5,298.1 M467.5,288.1 L457.5,298.1" stroke="#8a8f98" stroke-width="2"/>
<path d="M400.5,295.8 L410.5,305.8 M410.5,295.8 L400.5,305.8" stroke="#8a8f98" stroke-width="2"/>
<path d="M407.2,330.6 L417.2,340.6 M417.2,330.6 L407.2,340.6" stroke="#8a8f98" stroke-width="2"/>
<path d="M528.9,218.5 L538.9,228.5 M538.9,218.5 L528.9,228.5" stroke="#8a8f98" stroke-width="2"/>
<path d="M435.7,204.3 L445.7,214.3 M445.7,204.3 L435.7,214.3" stroke="#8a8f98" stroke-width="2"/>
<path d="M386.0,274.9 L396.0,284.9 M396.0,274.9 L386.0,284.9" stroke="#8a8f98" stroke-width="2"/>
<path d="M456.7,230.7 L466.7,240.7 M466.7,230.7 L456.7,240.7" stroke="#8a8f98" stroke-width="2"/>
<path d="M403.8,323.0 L413.8,333.0 M413.8,323.0 L403.8,333.0" stroke="#8a8f98" stroke-width="2"/>
<path d="M434.8,336.3 L444.8,346.3 M444.8,336.3 L434.8,346.3" stroke="#8a8f98" stroke-width="2"/>
<path d="M420.2,208.2 L430.2,218.2 M430.2,208.2 L420.2,218.2" stroke="#8a8f98" stroke-width="2"/>
<path d="M388.8,277.7 L398.8,287.7 M398.8,277.7 L388.8,287.7" stroke="#8a8f98" stroke-width="2"/>
<circle cx="147.9" cy="248.8" r="5.2" fill="#f58518" opacity="0.86"/>
<circle cx="162.0" cy="326.4" r="5.2" fill="#f58518" opacity="0.86"/>
<circle cx="140.4" cy="304.0" r="5.2" fill="#f58518" opacity="0.86"/>
<circle cx="145.3" cy="321.2" r="5.2" fill="#f58518" opacity="0.86"/>
<circle cx="138.4" cy="237.6" r="5.2" fill="#f58518" opacity="0.86"/>
<circle cx="134.3" cy="277.9" r="5.2" fill="#f58518" opacity="0.86"/>
<circle cx="150.4" cy="266.1" r="5.2" fill="#f58518" opacity="0.86"/>
<circle cx="154.1" cy="312.6" r="5.2" fill="#f58518" opacity="0.86"/>
<circle cx="155.4" cy="211.0" r="5.2" fill="#f58518" opacity="0.86"/>
<circle cx="143.3" cy="272.1" r="5.2" fill="#f58518" opacity="0.86"/>
<circle cx="151.5" cy="330.0" r="5.2" fill="#f58518" opacity="0.86"/>
<circle cx="153.6" cy="248.3" r="5.2" fill="#f58518" opacity="0.86"/>
<circle cx="142.0" cy="205.3" r="5.2" fill="#f58518" opacity="0.86"/>
<circle cx="174.7" cy="253.6" r="5.2" fill="#f58518" opacity="0.86"/>
<circle cx="152.3" cy="219.0" r="5.2" fill="#f58518" opacity="0.86"/>
<circle cx="181.9" cy="275.3" r="5.2" fill="#f58518" opacity="0.86"/>
<circle cx="150.8" cy="271.9" r="5.2" fill="#f58518" opacity="0.86"/>
<circle cx="171.8" cy="323.1" r="5.2" fill="#f58518" opacity="0.86"/>
<circle cx="164.2" cy="264.8" r="5.2" fill="#f58518" opacity="0.86"/>
<circle cx="155.3" cy="245.7" r="5.2" fill="#f58518" opacity="0.86"/>
<circle cx="157.5" cy="260.0" r="5.2" fill="#f58518" opacity="0.86"/>
<circle cx="147.9" cy="303.8" r="5.2" fill="#f58518" opacity="0.86"/>
<circle cx="157.4" cy="315.0" r="5.2" fill="#f58518" opacity="0.86"/>
<circle cx="181.0" cy="252.6" r="5.2" fill="#f58518" opacity="0.86"/>
<circle cx="159.7" cy="312.0" r="5.2" fill="#f58518" opacity="0.86"/>
<circle cx="152.3" cy="294.9" r="5.2" fill="#f58518" opacity="0.86"/>
<circle cx="164.7" cy="236.7" r="5.2" fill="#f58518" opacity="0.86"/>
<circle cx="127.9" cy="241.3" r="5.2" fill="#f58518" opacity="0.86"/>
<circle cx="135.4" cy="341.8" r="5.2" fill="#f58518" opacity="0.86"/>
<circle cx="155.2" cy="263.0" r="5.2" fill="#f58518" opacity="0.86"/>
<circle cx="146.3" cy="251.4" r="5.2" fill="#f58518" opacity="0.86"/>
<circle cx="125.9" cy="313.3" r="5.2" fill="#f58518" opacity="0.86"/>
<circle cx="170.8" cy="249.4" r="5.2" fill="#f58518" opacity="0.86"/>
<circle cx="157.7" cy="204.4" r="5.2" fill="#f58518" opacity="0.86"/>
<circle cx="162.8" cy="328.8" r="5.2" fill="#f58518" opacity="0.86"/>
<circle cx="138.8" cy="205.8" r="5.2" fill="#f58518" opacity="0.86"/>
<circle cx="138.1" cy="307.0" r="5.2" fill="#f58518" opacity="0.86"/>
<circle cx="150.6" cy="214.1" r="5.2" fill="#f58518" opacity="0.86"/>
<circle cx="152.6" cy="280.5" r="5.2" fill="#f58518" opacity="0.86"/>
<circle cx="415.1" cy="239.7" r="5.2" fill="#54a24b" opacity="0.86"/>
<circle cx="402.5" cy="295.1" r="5.2" fill="#54a24b" opacity="0.86"/>
<circle cx="391.3" cy="278.9" r="5.2" fill="#54a24b" opacity="0.86"/>
<circle cx="387.3" cy="246.9" r="5.2" fill="#54a24b" opacity="0.86"/>
<circle cx="374.1" cy="285.3" r="5.2" fill="#54a24b" opacity="0.86"/>
<circle cx="387.2" cy="264.2" r="5.2" fill="#54a24b" opacity="0.86"/>
<circle cx="416.3" cy="286.3" r="5.2" fill="#54a24b" opacity="0.86"/>
<circle cx="424.1" cy="258.8" r="5.2" fill="#54a24b" opacity="0.86"/>
<circle cx="400.5" cy="246.0" r="5.2" fill="#54a24b" opacity="0.86"/>
<circle cx="354.1" cy="285.3" r="5.2" fill="#e45756" opacity="0.86"/>
<circle cx="375.4" cy="293.6" r="5.2" fill="#e45756" opacity="0.86"/>
<circle cx="356.9" cy="309.1" r="5.2" fill="#e45756" opacity="0.86"/>
<circle cx="368.8" cy="309.0" r="5.2" fill="#e45756" opacity="0.86"/>
<circle cx="371.2" cy="296.3" r="5.2" fill="#e45756" opacity="0.86"/>
<circle cx="368.2" cy="279.4" r="5.2" fill="#e45756" opacity="0.86"/>
<circle cx="364.5" cy="291.5" r="5.2" fill="#e45756" opacity="0.86"/>
<circle cx="351.6" cy="398.9" r="5.2" fill="#72b7b2" opacity="0.86"/>
<circle cx="350.2" cy="320.9" r="5.2" fill="#72b7b2" opacity="0.86"/>
<circle cx="318.0" cy="310.6" r="5.2" fill="#72b7b2" opacity="0.86"/>
<circle cx="347.3" cy="294.3" r="5.2" fill="#72b7b2" opacity="0.86"/>
<circle cx="332.7" cy="334.3" r="5.2" fill="#72b7b2" opacity="0.86"/>
<circle cx="333.1" cy="368.6" r="5.2" fill="#72b7b2" opacity="0.86"/>
<circle cx="317.5" cy="352.2" r="5.2" fill="#72b7b2" opacity="0.86"/>
<circle cx="330.5" cy="386.0" r="5.2" fill="#72b7b2" opacity="0.86"/>
<circle cx="322.3" cy="386.7" r="5.2" fill="#72b7b2" opacity="0.86"/>
<circle cx="339.0" cy="333.3" r="5.2" fill="#72b7b2" opacity="0.86"/>
<circle cx="325.9" cy="295.8" r="5.2" fill="#72b7b2" opacity="0.86"/>
<circle cx="342.2" cy="370.3" r="5.2" fill="#72b7b2" opacity="0.86"/>
<circle cx="341.8" cy="356.3" r="5.2" fill="#72b7b2" opacity="0.86"/>
<circle cx="346.2" cy="347.5" r="5.2" fill="#72b7b2" opacity="0.86"/>
<circle cx="342.6" cy="338.5" r="5.2" fill="#72b7b2" opacity="0.86"/>
<circle cx="327.5" cy="293.2" r="5.2" fill="#72b7b2" opacity="0.86"/>
<circle cx="337.9" cy="306.9" r="5.2" fill="#72b7b2" opacity="0.86"/>
<circle cx="340.1" cy="321.3" r="5.2" fill="#72b7b2" opacity="0.86"/>
<circle cx="430.3" cy="284.2" r="5.2" fill="#b279a2" opacity="0.86"/>
<circle cx="432.7" cy="263.9" r="5.2" fill="#b279a2" opacity="0.86"/>
<circle cx="423.2" cy="252.7" r="5.2" fill="#b279a2" opacity="0.86"/>
<circle cx="436.5" cy="263.0" r="5.2" fill="#b279a2" opacity="0.86"/>
<circle cx="475.9" cy="219.9" r="5.2" fill="#4c78a8" opacity="0.86"/>
<circle cx="450.2" cy="213.0" r="5.2" fill="#4c78a8" opacity="0.86"/>
<circle cx="474.1" cy="239.9" r="5.2" fill="#4c78a8" opacity="0.86"/>
<circle cx="465.5" cy="234.8" r="5.2" fill="#4c78a8" opacity="0.86"/>
<circle cx="476.1" cy="222.8" r="5.2" fill="#4c78a8" opacity="0.86"/>
<circle cx="472.9" cy="210.6" r="5.2" fill="#4c78a8" opacity="0.86"/>
<circle cx="463.1" cy="255.1" r="5.2" fill="#4c78a8" opacity="0.86"/>
<circle cx="634" cy="92" r="6" fill="#8a8f98"/>
<text x="648" y="97" font-family="Arial" font-size="14" fill="#334155">noise</text>
<circle cx="634" cy="120" r="6" fill="#f58518"/>
<text x="648" y="125" font-family="Arial" font-size="14" fill="#334155">cluster 0</text>
<circle cx="634" cy="148" r="6" fill="#54a24b"/>
<text x="648" y="153" font-family="Arial" font-size="14" fill="#334155">cluster 1</text>
<circle cx="634" cy="176" r="6" fill="#e45756"/>
<text x="648" y="181" font-family="Arial" font-size="14" fill="#334155">cluster 2</text>
<circle cx="634" cy="204" r="6" fill="#72b7b2"/>
<text x="648" y="209" font-family="Arial" font-size="14" fill="#334155">cluster 3</text>
<circle cx="634" cy="232" r="6" fill="#b279a2"/>
<text x="648" y="237" font-family="Arial" font-size="14" fill="#334155">cluster 4</text>
<circle cx="634" cy="260" r="6" fill="#4c78a8"/>
<text x="648" y="265" font-family="Arial" font-size="14" fill="#334155">cluster 5</text>
</svg>