<svg xmlns="http://www.w3.org/2000/svg" width="760" height="560" viewBox="0 0 760 560">
<rect width="100%" height="100%" fill="#ffffff"/>
<text x="42" y="42" font-family="Arial" font-size="24" font-weight="700" fill="#111827">DBSCAN clustering (eps=0.6, min_samples=5)</text>
<rect x="72" y="72" width="538" height="416" fill="#f8fafc" stroke="#cbd5e1"/>
<line x1="72" y1="155.2" x2="610" y2="155.2" stroke="#e2e8f0"/>
<line x1="179.6" y1="72" x2="179.6" y2="488" stroke="#e2e8f0"/>
<line x1="72" y1="238.4" x2="610" y2="238.4" stroke="#e2e8f0"/>
<line x1="287.2" y1="72" x2="287.2" y2="488" stroke="#e2e8f0"/>
<line x1="72" y1="321.6" x2="610" y2="321.6" stroke="#e2e8f0"/>
<line x1="394.8" y1="72" x2="394.8" y2="488" stroke="#e2e8f0"/>
<line x1="72" y1="404.8" x2="610" y2="404.8" stroke="#e2e8f0"/>
<line x1="502.4" y1="72" x2="502.4" y2="488" stroke="#e2e8f0"/>
<text x="341.0" y="532" text-anchor="middle" font-family="Arial" font-size="15" fill="#334155">PCA 1</text>
<text x="26" y="280.0" text-anchor="middle" transform="rotate(-90 26 280.0)" font-family="Arial" font-size="15" fill="#334155">PCA 2</text>
<path d="M143.1,95.7 L153.1,105.7 M153.1,95.7 L143.1,105.7" stroke="#8a8f98" stroke-width="2"/>
<path d="M116.3,155.6 L126.3,165.6 M126.3,155.6 L116.3,165.6" stroke="#8a8f98" stroke-width="2"/>
<path d="M129.1,131.7 L139.1,141.7 M139.1,131.7 L129.1,141.7" stroke="#8a8f98" stroke-width="2"/>
<path d="M173.9,433.0 L183.9,443.0 M183.9,433.0 L173.9,443.0" stroke="#8a8f98" stroke-width="2"/>
<path d="M278.4,400.5 L288.4,410.5 M288.4,400.5 L278.4,410.5" stroke="#8a8f98" stroke-width="2"/>
<path d="M307.2,454.3 L317.2,464.3 M317.2,454.3 L307.2,464.3" stroke="#8a8f98" stroke-width="2"/>
<path d="M358.4,394.6 L368.4,404.6 M368.4,394.6 L358.4,404.6" stroke="#8a8f98" stroke-width="2"/>
<path d="M408.9,385.0 L418.9,395.0 M418.9,385.0 L408.9,395.0" stroke="#8a8f98" stroke-width="2"/>
<path d="M409.6,338.8 L419.6,348.8 M419.6,338.8 L409.6,348.8" stroke="#8a8f98" stroke-width="2"/>
<path d="M395.2,369.0 L405.2,379.0 M405.2,369.0 L395.2,379.0" stroke="#8a8f98" stroke-width="2"/>
<path d="M288.0,411.7 L298.0,421.7 M298.0,411.7 L288.0,421.7" stroke="#8a8f98" stroke-width="2"/>
<path d="M281.4,379.8 L291.4,389.8 M291.4,379.8 L281.4,389.8" stroke="#8a8f98" stroke-width="2"/>
<path d="M525.3,222.3 L535.3,232.3 M535.3,222.3 L525.3,232.3" stroke="#8a8f98" stroke-width="2"/>
<path d="M343.5,380.9 L353.5,390.9 M353.5,380.9 L343.5,390.9" stroke="#8a8f98" stroke-width="2"/>
<path d="M468.5,323.9 L478.5,333.9 M478.5,323.9 L468.5,333.9" stroke="#8a8f98" stroke-width="2"/>
<path d="M487.8,147.1 L497.8,157.1 M497.8,147.1 L487.8,157.1" stroke="#8a8f98" stroke-width="2"/>
<path d="M427.4,305.8 L437.4,315.8 M437.4,305.8 L427.4,315.8" stroke="#8a8f98" stroke-width="2"/>
<path d="M500.5,104.4 L510.5,114.4 M510.5,104.4 L500.5,114.4" stroke="#8a8f98" stroke-width="2"/>
<path d="M567.9,274.9 L577.9,284.9 M577.9,274.9 L567.9,284.9" stroke="#8a8f98" stroke-width="2"/>
<path d="M411.9,390.7 L421.9,400.7 M421.9,390.7 L411.9,400.7" stroke="#8a8f98" stroke-width="2"/>
<path d="M536.4,248.3 L546.4,258.3 M546.4,248.3 L536.4,258.3" stroke="#8a8f98" stroke-width="2"/>
<path d="M464.5,208.4 L474.5,218.4 M474.5,208.4 L464.5,218.4" stroke="#8a8f98" stroke-width="2"/>
<path d="M457.6,238.3 L467.6,248.3 M467.6,238.3 L457.6,248.3" stroke="#8a8f98" stroke-width="2"/>
<path d="M501.2,258.7 L511.2,268.7 M511.2,258.7 L501.2,268.7" stroke="#8a8f98" stroke-width="2"/>
<path d="M491.2,99.7 L501.2,109.7 M501.2,99.7 L491.2,109.7" stroke="#8a8f98" stroke-width="2"/>
<path d="M528.9,218.5 L538.9,228.5 M538.9,218.5 L528.9,228.5" stroke="#8a8f98" stroke-width="2"/>
<circle cx="147.9" cy="248.8" r="5.2" fill="#f58518" opacity="0.86"/>
<circle cx="162.0" cy="326.4" r="5.2" fill="#f58518" opacity="0.86"/>
<circle cx="140.4" cy="304.0" r="5.2" fill="#f58518" opacity="0.86"/>
<circle cx="145.3" cy="321.2" r="5.2" fill="#f58518" opacity="0.86"/>
<circle cx="138.4" cy="237.6" r="5.2" fill="#f58518" opacity="0.86"/>
<circle cx="162.4" cy="181.1" r="5.2" fill="#f58518" opacity="0.86"/>
<circle cx="134.3" cy="277.9" r="5.2" fill="#f58518" opacity="0.86"/>
<circle cx="150.4" cy="266.1" r="5.2" fill="#f58518" opacity="0.86"/>
<circle cx="142.6" cy="356.0" r="5.2" fill="#f58518" opacity="0.86"/>
<circle cx="154.1" cy="312.6" r="5.2" fill="#f58518" opacity="0.86"/>
<circle cx="155.4" cy="211.0" r="5.2" fill="#f58518" opacity="0.86"/>
<circle cx="143.3" cy="272.1" r="5.2" fill="#f58518" opacity="0.86"/>
<circle cx="151.5" cy="330.0" r="5.2" fill="#f58518" opacity="0.86"/>
<circle cx="119.9" cy="345.6" r="5.2" fill="#f58518" opacity="0.86"/>
<circle cx="153.0" cy="156.2" r="5.2" fill="#f58518" opacity="0.86"/>
<circle cx="152.3" cy="181.5" r="5.2" fill="#f58518" opacity="0.86"/>
<circle cx="153.6" cy="248.3" r="5.2" fill="#f58518" opacity="0.86"/>
<circle cx="175.9" cy="186.7" r="5.2" fill="#f58518" opacity="0.86"/>
<circle cx="142.0" cy="205.3" r="5.2" fill="#f58518" opacity="0.86"/>
<circle cx="174.7" cy="253.6" r="5.2" fill="#f58518" opacity="0.86"/>
<circle cx="152.3" cy="219.0" r="5.2" fill="#f58518" opacity="0.86"/>
<circle cx="109.1" cy="250.3" r="5.2" fill="#f58518" opacity="0.86"/>
<circle cx="181.9" cy="275.3" r="5.2" fill="#f58518" opacity="0.86"/>
<circle cx="150.8" cy="271.9" r="5.2" fill="#f58518" opacity="0.86"/>
<circle cx="171.8" cy="323.1" r="5.2" fill="#f58518" opacity="0.86"/>
<circle cx="164.2" cy="264.8" r="5.2" fill="#f58518" opacity="0.86"/>
<circle cx="155.3" cy="245.7" r="5.2" fill="#f58518" opacity="0.86"/>
<circle cx="157.5" cy="260.0" r="5.2" fill="#f58518" opacity="0.86"/>
<circle cx="147.9" cy="303.8" r="5.2" fill="#f58518" opacity="0.86"/>
<circle cx="157.4" cy="315.0" r="5.2" fill="#f58518" opacity="0.86"/>
<circle cx="181.0" cy="252.6" r="5.2" fill="#f58518" opacity="0.86"/>
<circle cx="159.7" cy="312.0" r="5.2" fill="#f58518" opacity="0.86"/>
<circle cx="152.3" cy="294.9" r="5.2" fill="#f58518" opacity="0.86"/>
<circle cx="164.7" cy="236.7" r="5.2" fill="#f58518" opacity="0.86"/>
<circle cx="127.9" cy="241.3" r="5.2" fill="#f58518" opacity="0.86"/>
<circle cx="135.4" cy="341.8" r="5.2" fill="#f58518" opacity="0.86"/>
<circle cx="155.2" cy="263.0" r="5.2" fill="#f58518" opacity="0.86"/>
<circle cx="146.3" cy="251.4" r="5.2" fill="#f58518" opacity="0.86"/>
<circle cx="125.9" cy="313.3" r="5.2" fill="#f58518" opacity="0.86"/>
<circle cx="170.8" cy="249.4" r="5.2" fill="#f58518" opacity="0.86"/>
<circle cx="157.7" cy="204.4" r="5.2" fill="#f58518" opacity="0.86"/>
<circle cx="162.8" cy="328.8" r="5.2" fill="#f58518" opacity="0.86"/>
<circle cx="138.8" cy="205.8" r="5.2" fill="#f58518" opacity="0.86"/>
<circle cx="138.1" cy="307.0" r="5.2" fill="#f58518" opacity="0.86"/>
<circle cx="150.6" cy="214.1" r="5.2" fill="#f58518" opacity="0.86"/>
<circle cx="152.6" cy="280.5" r="5.2" fill="#f58518" opacity="0.86"/>
<circle cx="404.5" cy="223.1" r="5.2" fill="#54a24b" opacity="0.86"/>
<circle cx="376.3" cy="241.2" r="5.2" fill="#54a24b" opacity="0.86"/>
<circle cx="415.1" cy="239.7" r="5.2" fill="#54a24b" opacity="0.86"/>
<circle cx="351.6" cy="398.9" r="5.2" fill="#54a24b" opacity="0.86"/>
<circle cx="402.5" cy="295.1" r="5.2" fill="#54a24b" opacity="0.86"/>
<circle cx="350.2" cy="320.9" r="5.2" fill="#54a24b" opacity="0.86"/>
<circle cx="377.5" cy="229.2" r="5.2" fill="#54a24b" opacity="0.86"/>
<circle cx="391.3" cy="278.9" r="5.2" fill="#54a24b" opacity="0.86"/>
<circle cx="321.4" cy="350.5" r="5.2" fill="#54a24b" opacity="0.86"/>
<circle cx="354.1" cy="285.3" r="5.2" fill="#54a24b" opacity="0.86"/>
<circle cx="375.4" cy="293.6" r="5.2" fill="#54a24b" opacity="0.86"/>
<circle cx="318.0" cy="310.6" r="5.2" fill="#54a24b" opacity="0.86"/>
<circle cx="387.3" cy="246.9" r="5.2" fill="#54a24b" opacity="0.86"/>
<circle cx="347.3" cy="294.3" r="5.2" fill="#54a24b" opacity="0.86"/>
<circle cx="332.7" cy="334.3" r="5.2" fill="#54a24b" opacity="0.86"/>
<circle cx="333.1" cy="368.6" r="5.2" fill="#54a24b" opacity="0.86"/>
<circle cx="376.8" cy="254.5" r="5.2" fill="#54a24b" opacity="0.86"/>
<circle cx="356.9" cy="309.1" r="5.2" fill="#54a24b" opacity="0.86"/>
<circle cx="368.8" cy="309.0" r="5.2" fill="#54a24b" opacity="0.86"/>
<circle cx="374.1" cy="285.3" r="5.2" fill="#54a24b" opacity="0.86"/>
<circle cx="387.2" cy="264.2" r="5.2" fill="#54a24b" opacity="0.86"/>
<circle cx="416.3" cy="286.3" r="5.2" fill="#54a24b" opacity="0.86"/>
<circle cx="424.1" cy="258.8" r="5.2" fill="#54a24b" opacity="0.86"/>
<circle cx="371.2" cy="296.3" r="5.2" fill="#54a24b" opacity="0.86"/>
<circle cx="317.5" cy="352.2" r="5.2" fill="#54a24b" opacity="0.86"/>
<circle cx="330.5" cy="386.0" r="5.2" fill="#54a24b" opacity="0.86"/>
<circle cx="322.3" cy="386.7" r="5.2" fill="#54a24b" opacity="0.86"/>
<circle cx="339.0" cy="333.3" r="5.2" fill="#54a24b" opacity="0.86"/>
<circle cx="401.4" cy="323.6" r="5.2" fill="#54a24b" opacity="0.86"/>
<circle cx="337.6" cy="300.4" r="5.2" fill="#54a24b" opacity="0.86"/>
<circle cx="353.3" cy="224.3" r="5.2" fill="#54a24b" opacity="0.86"/>
<circle cx="400.5" cy="246.0" r="5.2" fill="#54a24b" opacity="0.86"/>
<circle cx="325.9" cy="295.8" r="5.2" fill="#54a24b" opacity="0.86"/>
<circle cx="342.2" cy="370.3" r="5.2" fill="#54a24b" opacity="0.86"/>
<circle cx="341.8" cy="356.3" r="5.2" fill="#54a24b" opacity="0.86"/>
<circle cx="368.2" cy="279.4" r="5.2" fill="#54a24b" opacity="0.86"/>
<circle cx="346.2" cy="347.5" r="5.2" fill="#54a24b" opacity="0.86"/>
<circle cx="342.6" cy="338.5" r="5.2" fill="#54a24b" opacity="0.86"/>
<circle cx="327.5" cy="293.2" r="5.2" fill="#54a24b" opacity="0.86"/>
<circle cx="337.9" cy="306.9" r="5.2" fill="#54a24b" opacity="0.86"/>
<circle cx="364.5" cy="291.5" r="5.2" fill="#54a24b" opacity="0.86"/>
<circle cx="340.1" cy="321.3" r="5.2" fill="#54a24b" opacity="0.86"/>
<circle cx="461.2" cy="222.6" r="5.2" fill="#54a24b" opacity="0.86"/>
<circle cx="408.8" cy="328.0" r="5.2" fill="#54a24b" opacity="0.86"/>
<circle cx="488.6" cy="243.3" r="5.2" fill="#54a24b" opacity="0.86"/>
<circle cx="430.3" cy="284.2" r="5.2" fill="#54a24b" opacity="0.86"/>
<circle cx="462.9" cy="261.3" r="5.2" fill="#54a24b" opacity="0.86"/>
<circle cx="496.0" cy="252.9" r="5.2" fill="#54a24b" opacity="0.86"/>
<circle cx="424.5" cy="234.6" r="5.2" fill="#54a24b" opacity="0.86"/>
<circle cx="442.7" cy="309.4" r="5.2" fill="#54a24b" opacity="0.86"/>
<circle cx="464.1" cy="252.9" r="5.2" fill="#54a24b" opacity="0.86"/>
<circle cx="416.6" cy="359.1" r="5.2" fill="#54a24b" opacity="0.86"/>
<circle cx="441.8" cy="235.7" r="5.2" fill="#54a24b" opacity="0.86"/>
<circle cx="432.7" cy="263.9" r="5.2" fill="#54a24b" opacity="0.86"/>
<circle cx="475.9" cy="219.9" r="5.2" fill="#54a24b" opacity="0.86"/>
<circle cx="395.1" cy="319.5" r="5.2" fill="#54a24b" opacity="0.86"/>
<circle cx="422.2" cy="313.4" r="5.2" fill="#54a24b" opacity="0.86"/>
<circle cx="450.2" cy="213.0" r="5.2" fill="#54a24b" opacity="0.86"/>
<circle cx="410.1" cy="302.3" r="5.2" fill="#54a24b" opacity="0.86"/>
<circle cx="398.4" cy="276.8" r="5.2" fill="#54a24b" opacity="0.86"/>
<circle cx="456.9" cy="293.7" r="5.2" fill="#54a24b" opacity="0.86"/>
<circle cx="462.5" cy="293.1" r="5.2" fill="#54a24b" opacity="0.86"/>
<circle cx="405.5" cy="300.8" r="5.2" fill="#54a24b" opacity="0.86"/>
<circle cx="412.2" cy="335.6" r="5.2" fill="#54a24b" opacity="0.86"/>
<circle cx="440.7" cy="209.3" r="5.2" fill="#54a24b" opacity="0.86"/>
<circle cx="423.2" cy="252.7" r="5.2" fill="#54a24b" opacity="0.86"/>
<circle cx="391.0" cy="279.9" r="5.2" fill="#54a24b" opacity="0.86"/>
<circle cx="461.7" cy="235.7" r="5.2" fill="#54a24b" opacity="0.86"/>
<circle cx="474.1" cy="239.9" r="5.2" fill="#54a24b" opacity="0.86"/>
<circle cx="465.5" cy="234.8" r="5.2" fill="#54a24b" opacity="0.86"/>
<circle cx="408.8" cy="328.0" r="5.2" fill="#54a24b" opacity="0.86"/>
<circle cx="476.1" cy="222.8" r="5.2" fill="#54a24b" opacity="0.86"/>
<circle cx="472.9" cy="210.6" r="5.2" fill="#54a24b" opacity="0.86"/>
<circle cx="463.1" cy="255.1" r="5.2" fill="#54a24b" opacity="0.86"/>
<circle cx="439.8" cy="341.3" r="5.2" fill="#54a24b" opacity="0.86"/>
<circle cx="436.5" cy="263.0" r="5.2" fill="#54a24b" opacity="0.86"/>
<circle cx="425.2" cy="213.2" r="5.2" fill="#54a24b" opacity="0.86"/>
<circle cx="393.8" cy="282.7" r="5.2" fill="#54a24b" opacity="0.86"/>
<circle cx="634" cy="92" r="6" fill="#8a8f98"/>
<text x="648" y="97" font-family="Arial" font-size="14" fill="#334155">noise</text>
<circle cx="634" cy="120" r="6" fill="#f58518"/>
<text x="648" y="125" font-family="Arial" font-size="14" fill="#334155">cluster 0</text>
<circle cx="634" cy="148" r="6" fill="#54a24b"/>
<text x="648" y="153" font-family="Arial" font-size="14" fill="#334155">cluster 1</text>
</svg>