<svg xmlns="http://www.w3.org/2000/svg" width="1120" height="760" viewBox="0 0 1120 760">
<rect width="100%" height="100%" fill="#ffffff"/>
<defs><marker id="arrow" markerWidth="10" markerHeight="10" refX="9" refY="3" orient="auto"><path d="M0,0 L0,6 L9,3 z" fill="#64748b"/></marker></defs>
<text x="42" y="48" font-family="Arial" font-size="28" font-weight="700" fill="#111827">Neo4j Query Graph: Geoffrey Hinton</text>
<line x1="560.0" y1="400.0" x2="643.4" y2="656.8" stroke="#94a3b8" stroke-width="2" marker-end="url(#arrow)"/>
<text x="601.7" y="528.4" text-anchor="middle" font-family="Arial" font-size="12" fill="#475569">AUTHORED</text>
<line x1="341.6" y1="558.7" x2="643.4" y2="656.8" stroke="#94a3b8" stroke-width="2" marker-end="url(#arrow)"/>
<text x="492.5" y="607.7" text-anchor="middle" font-family="Arial" font-size="12" fill="#475569">AUTHORED</text>
<line x1="643.4" y1="143.2" x2="643.4" y2="656.8" stroke="#94a3b8" stroke-width="2" marker-end="url(#arrow)"/>
<text x="643.4" y="400.0" text-anchor="middle" font-family="Arial" font-size="12" fill="#475569">AUTHORED</text>
<line x1="643.4" y1="656.8" x2="830.0" y2="400.0" stroke="#94a3b8" stroke-width="2" marker-end="url(#arrow)"/>
<text x="736.7" y="528.4" text-anchor="middle" font-family="Arial" font-size="12" fill="#475569">PUBLISHED_IN</text>
<line x1="560.0" y1="400.0" x2="830.0" y2="400.0" stroke="#94a3b8" stroke-width="2" marker-end="url(#arrow)"/>
<text x="695.0" y="400.0" text-anchor="middle" font-family="Arial" font-size="12" fill="#475569">PROPOSED</text>
<circle cx="830.0" cy="400.0" r="32" fill="#8b5cf6" opacity="0.94"/>
<text x="830.0" y="405.0" text-anchor="middle" font-family="Arial" font-size="12" font-weight="700" fill="#ffffff">Concept</text>
<text x="830.0" y="454.0" text-anchor="middle" font-family="Arial" font-size="13" fill="#111827">neural networks</text>
<circle cx="643.4" cy="656.8" r="32" fill="#f97316" opacity="0.94"/>
<text x="643.4" y="661.8" text-anchor="middle" font-family="Arial" font-size="12" font-weight="700" fill="#ffffff">Paper</text>
<text x="643.4" y="710.8" text-anchor="middle" font-family="Arial" font-size="13" fill="#111827">AlexNet</text>
<circle cx="341.6" cy="558.7" r="32" fill="#3b82f6" opacity="0.94"/>
<text x="341.6" y="563.7" text-anchor="middle" font-family="Arial" font-size="12" font-weight="700" fill="#ffffff">Person</text>
<text x="341.6" y="612.7" text-anchor="middle" font-family="Arial" font-size="13" fill="#111827">Alex Krizhevsky</text>
<circle cx="560.0" cy="400.0" r="42" fill="#3b82f6" opacity="0.94"/>
<text x="560.0" y="405.0" text-anchor="middle" font-family="Arial" font-size="12" font-weight="700" fill="#ffffff">Person</text>
<text x="560.0" y="464.0" text-anchor="middle" font-family="Arial" font-size="13" fill="#111827">Geoffrey Hinton</text>
<circle cx="643.4" cy="143.2" r="32" fill="#3b82f6" opacity="0.94"/>
<text x="643.4" y="148.2" text-anchor="middle" font-family="Arial" font-size="12" font-weight="700" fill="#ffffff">Person</text>
<text x="643.4" y="197.2" text-anchor="middle" font-family="Arial" font-size="13" fill="#111827">Ilya Sutskever</text>
<circle cx="830.0" cy="400.0" r="32" fill="#64748b" opacity="0.94"/>
<text x="830.0" y="405.0" text-anchor="middle" font-family="Arial" font-size="12" font-weight="700" fill="#ffffff">Year</text>
<text x="830.0" y="454.0" text-anchor="middle" font-family="Arial" font-size="13" fill="#111827">2012</text>
<circle cx="42" cy="90" r="8" fill="#3b82f6"/>
<text x="60" y="95" font-family="Arial" font-size="15" fill="#334155">Person</text>
<circle cx="42" cy="118" r="8" fill="#f97316"/>
<text x="60" y="123" font-family="Arial" font-size="15" fill="#334155">Paper</text>
<circle cx="42" cy="146" r="8" fill="#10b981"/>
<text x="60" y="151" font-family="Arial" font-size="15" fill="#334155">Institution</text>
<circle cx="42" cy="174" r="8" fill="#8b5cf6"/>
<text x="60" y="179" font-family="Arial" font-size="15" fill="#334155">Concept</text>
<circle cx="42" cy="202" r="8" fill="#64748b"/>
<text x="60" y="207" font-family="Arial" font-size="15" fill="#334155">Year</text>
</svg>