<svg xmlns="http://www.w3.org/2000/svg" width="820" height="520" viewBox="0 0 820 520">
<rect width="100%" height="100%" fill="#ffffff"/>
<text x="40" y="42" font-family="Arial" font-size="24" font-weight="700" fill="#111827">Accuracy Comparison</text>
<rect x="86" y="78" width="650" height="320" fill="#f8fafc" stroke="#cbd5e1"/>
<line x1="86" y1="398" x2="736" y2="398" stroke="#334155"/>
<text x="32" y="238.0" text-anchor="middle" transform="rotate(-90 32 238.0)" font-family="Arial" font-size="15" fill="#334155">Accuracy</text>
<line x1="86" y1="142.0" x2="736" y2="142.0" stroke="#e2e8f0"/>
<line x1="86" y1="206.0" x2="736" y2="206.0" stroke="#e2e8f0"/>
<line x1="86" y1="270.0" x2="736" y2="270.0" stroke="#e2e8f0"/>
<line x1="86" y1="334.0" x2="736" y2="334.0" stroke="#e2e8f0"/>
<rect x="132.0" y="113.5" width="155.3" height="284.5" fill="#2563eb" rx="4"/>
<text x="209.7" y="105.5" text-anchor="middle" font-family="Arial" font-size="13" fill="#111827">0.889</text>
<text x="209.7" y="432.0" text-anchor="end" transform="rotate(-35 209.7 432.0)" font-family="Arial" font-size="12" fill="#334155">Logistic Regression</text>
<rect x="333.3" y="118.2" width="155.3" height="279.8" fill="#16a34a" rx="4"/>
<text x="411.0" y="110.2" text-anchor="middle" font-family="Arial" font-size="13" fill="#111827">0.874</text>
<text x="411.0" y="432.0" text-anchor="end" transform="rotate(-35 411.0 432.0)" font-family="Arial" font-size="12" fill="#334155">Linear SVM</text>
<rect x="534.7" y="145.4" width="155.3" height="252.6" fill="#dc2626" rx="4"/>
<text x="612.3" y="137.4" text-anchor="middle" font-family="Arial" font-size="13" fill="#111827">0.789</text>
<text x="612.3" y="432.0" text-anchor="end" transform="rotate(-35 612.3 432.0)" font-family="Arial" font-size="12" fill="#334155">GRU RNN</text>
</svg>