<svg xmlns="http://www.w3.org/2000/svg" width="900" height="540" viewBox="0 0 900 540">
<rect width="100%" height="100%" fill="#ffffff"/>
<text x="40" y="42" font-family="Arial" font-size="24" font-weight="700" fill="#111827">Time Comparison</text>
<rect x="86" y="82" width="720" height="320" fill="#f8fafc" stroke="#cbd5e1"/>
<line x1="86" y1="402" x2="806" y2="402" stroke="#334155"/>
<text x="32" y="242.0" text-anchor="middle" transform="rotate(-90 32 242.0)" font-family="Arial" font-size="15" fill="#334155">Seconds</text>
<line x1="86" y1="146.0" x2="806" y2="146.0" stroke="#e2e8f0"/>
<line x1="86" y1="210.0" x2="806" y2="210.0" stroke="#e2e8f0"/>
<line x1="86" y1="274.0" x2="806" y2="274.0" stroke="#e2e8f0"/>
<line x1="86" y1="338.0" x2="806" y2="338.0" stroke="#e2e8f0"/>
<rect x="161.7" y="370.0" width="42.0" height="32.0" fill="#2563eb" rx="4"/>
<text x="182.7" y="363.0" text-anchor="middle" font-family="Arial" font-size="11" fill="#111827">4.5</text>
<rect x="208.3" y="391.3" width="42.0" height="10.7" fill="#f97316" rx="4"/>
<text x="229.3" y="384.3" text-anchor="middle" font-family="Arial" font-size="11" fill="#111827">1.5</text>
<text x="206.0" y="438.0" text-anchor="end" transform="rotate(-35 206.0 438.0)" font-family="Arial" font-size="12" fill="#334155">Logistic Regression</text>
<rect x="401.7" y="369.2" width="42.0" height="32.8" fill="#2563eb" rx="4"/>
<text x="422.7" y="362.2" text-anchor="middle" font-family="Arial" font-size="11" fill="#111827">4.6</text>
<rect x="448.3" y="390.8" width="42.0" height="11.2" fill="#f97316" rx="4"/>
<text x="469.3" y="383.8" text-anchor="middle" font-family="Arial" font-size="11" fill="#111827">1.6</text>
<text x="446.0" y="438.0" text-anchor="end" transform="rotate(-35 446.0 438.0)" font-family="Arial" font-size="12" fill="#334155">Linear SVM</text>
<rect x="641.7" y="135.3" width="42.0" height="266.7" fill="#2563eb" rx="4"/>
<text x="662.7" y="128.3" text-anchor="middle" font-family="Arial" font-size="11" fill="#111827">37.5</text>
<rect x="688.3" y="382.6" width="42.0" height="19.4" fill="#f97316" rx="4"/>
<text x="709.3" y="375.6" text-anchor="middle" font-family="Arial" font-size="11" fill="#111827">2.7</text>
<text x="686.0" y="438.0" text-anchor="end" transform="rotate(-35 686.0 438.0)" font-family="Arial" font-size="12" fill="#334155">GRU RNN</text>
<rect x="650" y="30" width="14" height="14" fill="#2563eb" rx="2"/>
<text x="672" y="42" font-family="Arial" font-size="14" fill="#334155">train</text>
<rect x="730" y="30" width="14" height="14" fill="#f97316" rx="2"/>
<text x="752" y="42" font-family="Arial" font-size="14" fill="#334155">test</text>
</svg>