<svg xmlns="http://www.w3.org/2000/svg" width="900" height="480" viewBox="0 0 900 480">
<rect width="100%" height="100%" fill="#ffffff"/>
<rect x="72" y="36" width="780" height="340" fill="#f8fafc" stroke="#cbd5e1"/>
<line x1="72" y1="376" x2="852" y2="376" stroke="#475569"/>
<line x1="72" y1="36" x2="72" y2="376" stroke="#475569"/>
<text x="24" y="206.0" text-anchor="middle" transform="rotate(-90 24 206.0)" font-family="Arial" font-size="14" fill="#334155">Close Price</text>
<polyline fill="none" stroke="#111827" stroke-width="2.4" points="72.0,286.7 83.8,292.1 95.6,326.6 107.5,360.3 119.3,361.4 131.1,367.3 142.9,371.2 154.7,374.1 166.5,371.8 178.4,375.4 190.2,376.0 202.0,374.0 213.8,359.3 225.6,369.0 237.5,354.9 249.3,342.7 261.1,338.7 272.9,344.0 284.7,333.6 296.5,313.7 308.4,326.9 320.2,319.5 332.0,311.2 343.8,315.0 355.6,317.3 367.5,335.5 379.3,345.3 391.1,362.3 402.9,362.7 414.7,362.2 426.5,360.9 438.4,343.7 450.2,336.1 462.0,338.1 473.8,340.3 485.6,349.8 497.5,343.2 509.3,337.4 521.1,299.8 532.9,264.5 544.7,230.7 556.5,187.1 568.4,201.9 580.2,184.2 592.0,166.0 603.8,153.5 615.6,113.2 627.5,66.4 639.3,47.9 651.1,36.0 662.9,56.1 674.7,76.9 686.5,67.0 698.4,71.4 710.2,98.6 722.0,105.6 733.8,104.9 745.6,94.8 757.5,103.6 769.3,115.8 781.1,123.8 792.9,129.2 804.7,158.5 816.5,153.1 828.4,124.2 840.2,119.6 852.0,154.4"/>
<polyline fill="none" stroke="#2563eb" stroke-width="2.4" points="781.1,117.1 792.9,119.3 804.7,117.1 816.5,114.7 828.4,113.6 840.2,111.1 852.0,109.2"/>
<polyline fill="none" stroke="#dc2626" stroke-width="2.4" points="781.1,121.9 792.9,127.0 804.7,131.9 816.5,136.6 828.4,140.9 840.2,145.1 852.0,149.1"/>
<text x="72" y="406" text-anchor="start" font-family="Arial" font-size="12" fill="#475569">2025-09-30</text>
<text x="852" y="406" text-anchor="end" font-family="Arial" font-size="12" fill="#475569">2025-12-31</text>
<line x1="92" y1="416" x2="120" y2="416" stroke="#111827" stroke-width="3"/>
<text x="128" y="421" font-family="Arial" font-size="13" fill="#334155">Actual</text>
<line x1="212" y1="416" x2="240" y2="416" stroke="#2563eb" stroke-width="3"/>
<text x="248" y="421" font-family="Arial" font-size="13" fill="#334155">ARIMA(5, 1, 0)</text>
<line x1="392" y1="416" x2="420" y2="416" stroke="#dc2626" stroke-width="3"/>
<text x="428" y="421" font-family="Arial" font-size="13" fill="#334155">LSTM</text>
</svg>