<svg xmlns="http://www.w3.org/2000/svg" width="760" height="420" viewBox="0 0 760 420">
<rect width="100%" height="100%" fill="#ffffff"/>
<rect x="70" y="34" width="620" height="290" fill="#f8fafc" stroke="#cbd5e1"/>
<line x1="70" y1="324" x2="690" y2="324" stroke="#475569"/>
<line x1="70" y1="34" x2="70" y2="324" stroke="#475569"/>
<text x="22" y="179.0" text-anchor="middle" transform="rotate(-90 22 179.0)" font-family="Arial" font-size="14" fill="#334155">MSE Loss</text>
<polyline fill="none" stroke="#16a34a" stroke-width="2.4" points="70.0,34.0 80.5,224.6 91.0,299.2 101.5,306.3 112.0,313.6 122.5,315.0 133.1,316.0 143.6,318.4 154.1,318.8 164.6,318.1 175.1,316.9 185.6,320.4 196.1,319.5 206.6,320.8 217.1,320.9 227.6,319.3 238.1,320.3 248.6,322.2 259.2,318.9 269.7,322.8 280.2,322.4 290.7,322.5 301.2,322.5 311.7,321.9 322.2,322.7 332.7,322.5 343.2,320.7 353.7,318.8 364.2,319.6 374.7,321.7 385.3,321.4 395.8,322.0 406.3,322.5 416.8,321.8 427.3,322.0 437.8,321.0 448.3,323.2 458.8,322.6 469.3,321.7 479.8,320.1 490.3,323.6 500.8,323.5 511.4,323.6 521.9,323.4 532.4,323.8 542.9,323.7 553.4,320.5 563.9,321.5 574.4,321.5 584.9,322.0 595.4,322.0 605.9,321.4 616.4,322.7 626.9,323.1 637.5,323.2 648.0,324.0 658.5,323.5 669.0,322.6 679.5,319.9 690.0,322.9"/>
<text x="70" y="354" text-anchor="start" font-family="Arial" font-size="12" fill="#475569">epoch 1</text>
<text x="690" y="354" text-anchor="end" font-family="Arial" font-size="12" fill="#475569">epoch 60</text>
</svg>